<?xml version="1.0" encoding="utf-8"?>
<!-- Generator: Adobe Illustrator 19.2.1, SVG Export Plug-In . SVG Version: 6.00 Build 0)  -->
<svg version="1.1" id="layer" xmlns="http://www.w3.org/2000/svg" xmlns:xlink="http://www.w3.org/1999/xlink" x="0px" y="0px"
	 viewBox="0 0 850 850" xml:space="preserve">
<style type="text/css">
	.st0{fill:#1C2172;}
	.st1{fill:#FFFFFF;}
	.st2{fill:#C3D62D;}
</style>
<g>
	<path class="st0" d="M314.7,75.2c-49.1,1.5-98.1,13.4-142,35.7c-48,24.4-90.2,61.8-116.2,109.3c-19.9,36-29.6,77.6-26.8,118.6
		c2.2,35.8,13.9,70.7,32.7,101.1c29.1,47.2,74,83.3,124.3,105.8c76.2,34.1,165,38.3,244.5,13.1c56.2-17.9,108.2-51.3,144.3-98.3
		c21.4-27.7,36.8-60.2,43.4-94.7c7.7-39.1,4.1-80.3-10.2-117.5c-11.7-30.7-30.3-58.6-53.2-82c-22-22.6-48-41.2-76.1-55.5
		C428.7,85.1,371.3,73.4,314.7,75.2"/>
	<path class="st1" d="M255.2,106c14.8-2.6,30.3-0.8,44.1,5.2c17.8,7.5,32.7,20.7,44.7,35.6c24.6,31.1,38.9,69,47.4,107.4
		c-10.8,0-21.6,0-32.4,0c-7.7-34.1-20.1-67.7-40.5-96.4c-15.3-21.3-36.7-40.5-63.3-45.4C255.1,110.4,255.2,108.2,255.2,106"/>
	<path class="st1" d="M321,106.1c18.9-3.5,38.7,1,55.3,10.5c22.5,12.9,39.5,33.4,52.8,55.3c15.1,25.4,26.4,53.3,32.3,82.3
		c-10.8,0-21.6,0-32.4,0c-5.8-25.6-15.5-50.3-28.4-73.1c-13-22.6-29.8-44.1-52.2-58c-8.4-5.1-17.5-9.2-27.3-10.6V106.1z"/>
	<path class="st1" d="M387.1,106.1c20-3.4,40.9,0.8,58.6,10.5c17.9,9.7,32.6,24.4,44.3,40.9c20.3,28.8,32.5,62.5,40,96.8h-31.7
		c-7.5-35.6-20.2-71-43-99.8c-16.9-21.3-41-37.8-68.2-41.9C387.1,110.4,387.1,108.2,387.1,106.1"/>
	<path class="st1" d="M359,395.8h32.4c-6.9,31.4-17.8,62.2-34.8,89.6c-10,15.9-22.1,30.7-37.3,41.9c-18.1,13.7-41.6,20.9-64.1,16.6
		c0-2.2-0.1-4.3-0.1-6.5c17.4-3.1,33-12.7,45.6-24.8c20.4-19.7,34.4-45.1,44.6-71.4C351,426.5,355.5,411.2,359,395.8"/>
	<path class="st1" d="M428.9,395.8h32.4c-3.8,19.4-10.3,38.2-18.5,56.2c-12.8,27.7-29.8,54.4-54.2,73.3C369.8,540,345,548.4,321,544
		v-6.4c16.4-2.5,30.9-11.7,43.2-22.5c21.6-19.4,37.1-44.7,48.7-71C419.7,428.5,425.2,412.4,428.9,395.8"/>
	<path class="st1" d="M498.3,395.8h31.7c-7.1,33-18.8,65.5-37.8,93.7c-10.5,15.3-23.3,29.3-38.9,39.5c-19.3,12.8-43.3,19-66.2,15.1
		c0-2.2,0-4.3,0-6.5c18.1-2.8,35.1-10.9,49.2-22.6c21.6-17.8,36.4-42.5,46.9-68.2C489.8,430.2,494.6,413.1,498.3,395.8"/>
	<path class="st2" d="M228.3,108.8c5.1-1.3,10.3-2.2,15.5-2.8v6.6c-10.5,3.1-19.7,9.6-27.6,17.1c-11,10.5-20,22.8-28,35.7
		c-17,27.1-28.2,57.6-34.5,89c-10.6,0-21.2,0-31.7,0c8.3-38.5,22.7-76.6,48.1-107.2C185.1,128.9,205.3,114.5,228.3,108.8"/>
	<path class="st2" d="M227.6,162.1c9.5-14.7,21-28.5,35.2-38.9c7.5,3.2,14.7,7.2,21.2,12.2c-22.2,21.7-38.1,49.1-48.5,78.2
		c-4.9,13.3-8.7,27-11.8,40.7h-32.4C198.3,221.9,209.7,190.1,227.6,162.1"/>
	<path class="st2" d="M260.6,254.3c7.8-35.7,20.8-71,42.5-100.8c6.7,7.8,12.7,16.3,18,25.2c-4.4,6.5-7.5,13.7-10.7,20.9
		c-7.5,17.6-13.1,36-17.4,54.7H260.6z"/>
	<path class="st2" d="M79,287.1c10.7-8.2,25.1-10.6,38.3-8.2c7.8,1.4,15.6,4.9,20.9,10.9c2.3,2.7,4.4,6.5,2.9,10.1
		c-1.2,3.2-4.6,4.7-7.6,5.5c-8.8-15.6-32.1-18.9-45.5-7.4c-11.2,9.5-13.8,26.4-9.4,39.9c2.8,8.5,9.3,15.8,17.7,19
		c10.1,3.9,22.3,2.6,30.8-4.2c3.3-2.5,5.5-6.1,7.2-9.8c3.5,0.7,7.4,2.4,8.5,6.2c1.1,4.2-1.7,8.2-4.3,11.2
		c-8.1,8.6-20.3,12.1-31.9,11.9c-12.5,0.1-25.2-4.9-33.5-14.3c-9.2-10.2-12.6-24.7-11.2-38.1C62.9,307,68.8,294.7,79,287.1"/>
	<path class="st2" d="M219.1,279.5c2.6-0.4,5.5-0.6,8,0.6c2.2,1.4,2.4,4.1,2.4,6.4c0,15.8,0,31.6,0,47.4c-0.1,9.8-2.3,20.2-9.2,27.6
		c-6.7,7.3-17,10.2-26.7,10.2c-9.7,0.2-20.1-1.8-27.4-8.6c-7.7-7.2-10.4-18.1-10.5-28.4c0-16.8-0.1-33.6,0.1-50.3
		c0-5,5.9-6.1,9.7-5.1c3,0.2,4.7,3.3,4.6,6.2c0.1,16.1,0,32.2,0,48.4c0,7.2,1.6,15.1,7.2,20.2c5.8,5.2,14.3,5.7,21.6,4.4
		c5.9-1.1,11.1-5,13.4-10.6c1.9-4.4,2.6-9.2,2.6-14c0-16.1,0-32.2,0-48.3C214.8,283,216.2,279.9,219.1,279.5"/>
	<path class="st2" d="M279.5,294c-4.9,12.6-9.7,25.3-14.6,37.9c9.7,0.1,19.4-0.1,29,0.1C289.2,319.4,284.3,306.7,279.5,294 M273,280
		c3.3-1.3,7-1.2,10.5-0.8c2.5,0.3,5.1,1.6,6,4.2c10.9,27.8,21.8,55.7,32.7,83.6c-2.7,3.2-7.4,4.9-11.4,3.3c-2.7-1-4.4-3.5-5.3-6
		c-2.7-6.8-5.3-13.7-7.9-20.6c-12,0-24.1,0-36.1,0c-2.8,7-5.4,14.1-8.1,21.1c-1,2.6-2.8,5.1-5.6,5.8c-3.8,1-7.9-0.7-10.3-3.6
		c10.3-26.4,20.5-52.9,30.8-79.4C269.3,284.9,269.9,281.3,273,280"/>
	<path class="st2" d="M339.2,279.6c2.6-0.5,5.3-0.6,7.8,0.4c2.5,1.1,2.9,4.1,2.9,6.5c0,23.5,0,47.1,0,70.6c13,0,25.9,0,38.9,0
		c2.8-0.2,6,1,6.7,4c0.4,2.5,0.5,5.4-1.3,7.3c-1.6,1.7-4.2,1.7-6.4,1.7c-15.1-0.1-30.3,0.1-45.4-0.1c-4.2,0.1-7.4-4-7-8.1
		c0-25.5,0-51,0-76.4C335.3,283.1,336.5,280.1,339.2,279.6"/>
	<path class="st2" d="M411.5,280.2c2.4-1.3,5.3-1.1,7.9-0.7c2.8,0.4,4.4,3.4,4.2,6c0,23.9,0,47.7,0,71.6c12.9,0,25.8,0,38.8,0
		c2.5-0.1,5.5,0.6,6.6,3.2c0.9,2.6,1,6.1-1.1,8.2c-1.7,1.7-4.3,1.6-6.5,1.6c-15.1-0.1-30.3,0.1-45.4-0.1c-4.1,0-7.1-4.1-6.7-8
		c-0.1-24.5,0.1-49-0.1-73.6C409.2,285.7,408.8,282.1,411.5,280.2"/>
	<path class="st2" d="M488.8,279.4c2.5-0.3,5.5-0.5,7.7,1c1.9,1.4,2.1,3.9,2.1,6.1c0,25.8,0,51.6,0,77.4c0.1,2.3-0.6,5.1-2.9,6.1
		c-4.3,1.8-11.8,0.9-11.5-5.2c-0.1-26.5,0-52.9,0-79.4C483.9,282.7,485.7,279.7,488.8,279.4"/>
	<path class="st2" d="M573.2,286.2c1.9-2.7,3.8-6,7.2-7c4.3-1.2,8.5,1.7,10.4,5.4c-9.9,13.4-19.8,26.9-29.8,40.3
		c9.9,13.4,19.8,26.7,29.8,40c-1.7,3.2-4.9,5.6-8.6,5.7c-3.2,0.1-6.2-1.8-8-4.5c-7.6-11-15.3-21.9-22.9-32.9
		c-7.8,11.1-15.7,22.2-23.5,33.3c-1.5,2.2-3.7,4.2-6.5,4.3c-3.9,0.2-7.3-2.4-9-5.7c10-13.4,20-27,30-40.4
		c-9.7-13.3-19.6-26.6-29.2-40c1.7-2.6,4.1-4.8,7.3-5.4c3.7-0.8,7.5,1.2,9.5,4.3c7.4,10.8,14.8,21.5,22.2,32.3
		C559.1,306.1,566.1,296.2,573.2,286.2"/>
	<path class="st2" d="M122,395.9c10.6,0,21.2,0,31.7,0c5.5,26.3,13.9,52.1,26.8,75.7c8.9,16.3,19.1,32,31.9,45.5
		c8.4,8.7,18.1,16.6,29.7,20.5v6.4c-15.3-1.9-30.2-7-43.2-15.3c-16-10-29-24.3-39.5-39.9C140.5,461,129.2,428.7,122,395.9"/>
	<path class="st2" d="M191.2,395.9c10.8,0,21.6,0,32.4,0c5.7,25.3,14,50.2,26.2,73.1c9,16.4,20.2,31.5,33.2,44.9
		c-6.5,5.3-13.6,9.8-21.2,13.2c-22.7-20.3-40.8-45.6-52.5-73.7C201.4,435,195.5,415.6,191.2,395.9"/>
	<path class="st2" d="M260.6,395.9c10.8,0,21.6,0,32.5,0c5.7,25.3,13.9,50.3,26.3,73.2c-5.1,9-10.9,17.6-17.4,25.7
		C280.8,465.6,268.4,430.9,260.6,395.9"/>
</g>
</svg>
