<?xml version="1.0" encoding="utf-8"?>
<!-- Generator: Adobe Illustrator 19.2.1, SVG Export Plug-In . SVG Version: 6.00 Build 0)  -->
<svg version="1.1" id="layer" xmlns="http://www.w3.org/2000/svg" xmlns:xlink="http://www.w3.org/1999/xlink" x="0px" y="0px"
	 viewBox="0 0 652 652" style="enable-background:new 0 0 652 652;" xml:space="preserve">
<style type="text/css">
	.st0{fill-rule:evenodd;clip-rule:evenodd;fill:#005098;}
	.st1{fill:#FFFFFF;}
	.st2{fill:none;stroke:#005098;stroke-width:4.7635;stroke-miterlimit:10;}
	.st3{fill:#005098;}
</style>
<g>
	<path class="st0" d="M320.2,141.2h10.9c56,2.8,95.8,24.7,125.4,54.3c29.6,29.6,51.4,69.4,54.3,125.4v10.9
		c-2.9,56-24.7,95.8-54.3,125.4c-29.6,29.6-69.4,51.4-125.4,54.3h-10.9c-56-2.8-95.8-24.7-125.4-54.3
		c-29.6-29.6-51.4-69.4-54.3-125.4v-10.9c0.2-0.1,0.3-0.2,0.3-0.6c2.7-55.9,24.5-95.6,54-125.1C224.4,165.6,264.5,144.2,320.2,141.2
		 M327.9,246.1c-22.1,1.5-33.7,15.4-35.1,36.6c-1.4,20.7,5.1,33.5,16,44.9c9.8,10.2,25,18,30.3,30.9c3.5,8.6,1.8,23.7-5.2,25.7
		c-4.5,1.3-8.7-0.2-10.9-2c-5.2-4.4-4.6-16.5-4.6-23.1h-28.9c0.4,29.3,10.3,46,34.6,49.1c28,3.6,45.3-13.4,46.9-36.9
		c1.6-24.1-8.7-37.6-21.1-49.4c-8.5-8.1-20.7-15.9-26.3-27.1c-4-8-5.2-21.7,4.3-24.9c14.1-4.7,15.4,13.5,15.4,24.9h25.7
		C368.6,264,360.4,243.8,327.9,246.1 M197.9,248.1v158.3c9.3,0.7,19.9,0.1,29.7,0.3c0.9-27-0.3-56.1,0.6-83.1
		c9.3,27.7,19,54.9,28.6,82.3h23.1V247.2h-27.1c-0.2,25.2,0.4,51.2-0.3,76c-9.5-25.4-18.7-51.2-28.9-76h-25.4
		C197.9,247.2,197.9,247.6,197.9,248.1 M382.5,248.1c0.2,52.5-0.4,105.7,0.3,157.7c10.4-0.2,21.5,0.4,31.4-0.3v-65.7
		c8,0,17.5,0,24.6,0v-27.7h-24.6c0.2-13.3-0.4-27.4,0.3-40.3h34v-24.6h-65.4C382.7,247.3,382.5,247.6,382.5,248.1"/>
	<path class="st1" d="M338.2,326.3c0,6.9-5.5,12.3-12.5,12.3c-7,0-12.6-5.4-12.6-12.3c0-6.9,5.6-12.2,12.7-12.2
		C332.7,314.1,338.2,319.4,338.2,326.3 M316.2,326.3c0,5.4,4.1,9.8,9.6,9.8c5.3,0.1,9.3-4.3,9.3-9.7c0-5.4-4-9.8-9.5-9.8
		C320.3,316.5,316.2,320.9,316.2,326.3 M323.8,332.6h-2.8v-12.2c1.1-0.1,2.7-0.4,4.7-0.4c2.3,0,3.4,0.4,4.2,1
		c0.7,0.5,1.3,1.4,1.3,2.6c0,1.5-1.1,2.5-2.5,2.9v0.2c1.2,0.4,1.8,1.3,2.2,3c0.4,1.9,0.7,2.5,0.9,3h-3c-0.4-0.4-0.6-1.5-1-3
		c-0.2-1.3-1-1.9-2.5-1.9h-1.3V332.6z M323.8,325.8h1.3c1.6,0,2.8-0.5,2.8-1.8c0-1.1-0.8-1.9-2.6-1.9c-0.7,0-1.3,0.1-1.6,0.2V325.8z
		"/>
	<ellipse class="st2" cx="325.6" cy="326.3" rx="250" ry="250"/>
</g>
<g>
	<path class="st3" d="M135.8,280.5l-41.2-10.9l2.2-8.3l41.2,10.9L135.8,280.5z"/>
</g>
<g>
	<path class="st3" d="M141.2,260l-38.7-17.9l3.5-7.6l33.1-3.9l-25.8-11.9l3.4-7.2l38.7,17.9l-3.6,7.8l-32.4,3.9l25.2,11.6L141.2,260
		z"/>
</g>
<g>
	<path class="st3" d="M128.6,192l9.8-12.3c2.2-2.8,4.1-4.7,5.7-5.8c2.1-1.5,4.5-2.4,7.1-2.6c2.6-0.2,5.2,0.1,7.9,1.1
		c2.7,1,5.6,2.7,8.8,5.2c2.7,2.2,4.8,4.4,6.3,6.7c1.8,2.8,2.8,5.5,3.1,8.2c0.2,2.1-0.2,4.4-1.1,6.9c-0.7,1.9-2.1,4-4,6.5L162,218.5
		L128.6,192z M139.6,189.8l22.1,17.5l4-5c1.5-1.9,2.5-3.3,2.9-4.3c0.6-1.3,0.9-2.6,0.8-3.8c-0.1-1.2-0.7-2.7-1.8-4.3
		c-1.1-1.7-3-3.5-5.6-5.5s-4.8-3.4-6.5-4c-1.7-0.6-3.3-0.9-4.8-0.6c-1.4,0.2-2.8,0.8-4.1,1.9c-1,0.8-2.5,2.5-4.7,5.3L139.6,189.8z"
		/>
</g>
<g>
	<path class="st3" d="M192.2,183l-26.5-33.4l24.8-19.6l4.5,5.7l-18,14.3l5.9,7.4l16.8-13.3l4.5,5.6l-16.8,13.3l7.2,9.1l18.6-14.8
		l4.5,5.6L192.2,183z"/>
</g>
<g>
	<path class="st3" d="M227.1,157.1l-18.5-38.4l12.4-6c4.7-2.3,7.9-3.6,9.5-3.9c2.5-0.5,4.9-0.1,7.3,1.1c2.4,1.2,4.3,3.3,5.8,6.4
		c1.1,2.4,1.7,4.5,1.6,6.6c-0.1,2-0.6,3.8-1.4,5.4c-0.9,1.5-1.9,2.8-3.1,3.8c-1.7,1.3-4.3,2.7-7.8,4.4l-5.1,2.4l7,14.5L227.1,157.1z
		 M219.5,121.5l5.2,10.9l4.2-2c3.1-1.5,5-2.7,5.8-3.6c0.8-0.9,1.3-1.9,1.5-3c0.2-1.1,0-2.3-0.6-3.4c-0.7-1.4-1.6-2.4-2.9-2.9
		c-1.3-0.5-2.6-0.6-3.9-0.2c-1,0.3-2.9,1.1-5.7,2.4L219.5,121.5z"/>
</g>
<g>
	<path class="st3" d="M266.8,139.5L257.3,98l30.8-7.1l1.6,7l-22.4,5.1l2.1,9.2l20.8-4.8l1.6,7l-20.8,4.8l2.6,11.3l23.2-5.3l1.6,7
		L266.8,139.5z"/>
</g>
<g>
	<path class="st3" d="M309.5,130.8l0.7-42.6l8.4,0.1l17,28.7l0.5-28.4l8,0.1l-0.7,42.6l-8.6-0.1l-16.7-28.1l-0.4,27.8L309.5,130.8z"
		/>
</g>
<g>
	<path class="st3" d="M366,91.3l15.3,3.8c3.4,0.8,6,1.7,7.7,2.7c2.3,1.3,4,3.1,5.3,5.4c1.3,2.3,2.1,4.8,2.3,7.7
		c0.3,2.9-0.1,6.2-1,10.1c-0.8,3.4-2,6.2-3.4,8.5c-1.8,2.8-3.8,4.8-6.2,6.2c-1.8,1.1-4,1.7-6.7,1.9c-2,0.1-4.5-0.2-7.6-0.9
		l-15.7-3.9L366,91.3z M372.6,100.3l-6.7,27.4l6.2,1.5c2.3,0.6,4.1,0.9,5.2,0.8c1.4,0,2.7-0.3,3.8-0.9c1.1-0.6,2.2-1.7,3.2-3.5
		c1-1.7,1.9-4.2,2.7-7.4c0.8-3.2,1.1-5.7,1-7.6c-0.1-1.9-0.6-3.4-1.4-4.6c-0.8-1.2-1.9-2.2-3.4-2.9c-1.1-0.5-3.4-1.2-6.8-2.1
		L372.6,100.3z"/>
</g>
<g>
	<path class="st3" d="M400.7,145.4l19.4-37.9l28.1,14.4l-3.3,6.4l-20.5-10.5l-4.3,8.4l19,9.7l-3.3,6.4l-19-9.7l-5.3,10.3l21.2,10.9
		l-3.3,6.4L400.7,145.4z"/>
</g>
<g>
	<path class="st3" d="M438.8,166.3l27.5-32.5l6.4,5.4l-5.1,33l18.4-21.7l6.1,5.2l-27.6,32.5l-6.6-5.6l4.9-32.3l-18,21.2L438.8,166.3
		z"/>
</g>
<g>
	<path class="st3" d="M479,205.4l28.3-21.3l-7.6-10.1l5.7-4.3l20.4,27L520,201l-7.6-10.1l-28.3,21.3L479,205.4z"/>
</g>
<g>
	<path class="st3" d="M496.5,230.8l38.2-18l3.7,7.8l-31.7,15l9.1,19.3l-6.5,3.1L496.5,230.8z"/>
</g>
<g>
	<path class="st3" d="M513.6,273.3l17.4-4.5l20-21.3l2.5,9.8l-13.8,13.9l18.8,5.3l2.5,9.6l-27.9-9l-17.3,4.5L513.6,273.3z"/>
</g>
<g>
	<path class="st3" d="M193.7,504.2l4.8,7.3c-3.9,2.8-7.7,4.1-11.5,4c-3.7-0.1-7.4-1.6-10.9-4.5c-4.4-3.6-6.8-8-7.1-13.3
		c-0.4-5.3,1.5-10.6,5.8-15.7c4.5-5.5,9.4-8.6,14.7-9.3c5.3-0.7,10.3,0.8,14.9,4.6c4,3.3,6.3,7.2,6.9,11.6c0.3,2.6-0.2,5.6-1.6,8.8
		l-7.9-3.8c1-2,1.3-4.1,0.9-6c-0.4-2-1.5-3.7-3.3-5.2c-2.4-2-5.2-2.7-8.1-2.2s-6,2.7-9.3,6.7c-3.4,4.2-5.1,7.8-5,10.8
		c0.1,3,1.3,5.5,3.7,7.4c1.8,1.4,3.8,2.1,5.9,2S191.2,506.2,193.7,504.2z"/>
</g>
<g>
	<path class="st3" d="M206.7,531.8l18.9-38.2l28.3,14l-3.2,6.5l-20.6-10.2l-4.2,8.5l19.2,9.5l-3.2,6.4l-19.2-9.5l-5.2,10.4
		l21.3,10.6l-3.2,6.4L206.7,531.8z"/>
</g>
<g>
	<path class="st3" d="M253.8,552.8l9.9-41.4l17.6,4.2c4.4,1.1,7.5,2.2,9.4,3.4c1.8,1.2,3.1,2.9,3.9,5.1c0.7,2.2,0.8,4.5,0.3,7
		c-0.7,3.1-2.3,5.5-4.6,7.1c-2.3,1.6-5.4,2.2-9.1,1.9c1.6,1.5,2.8,3,3.6,4.5c0.9,1.5,1.9,4.2,3.2,7.9l3.1,9.3l-10-2.4l-3.9-10.5
		c-1.4-3.7-2.4-6.1-3-7.1c-0.6-1-1.3-1.8-2.1-2.3c-0.8-0.5-2.2-1-4.1-1.5l-1.7-0.4l-4.1,17.3L253.8,552.8z M267.9,530.9l6.2,1.5
		c4,1,6.6,1.4,7.7,1.3c1.1-0.1,2-0.5,2.8-1.2c0.8-0.7,1.3-1.7,1.6-2.9c0.3-1.4,0.2-2.6-0.3-3.6c-0.5-1-1.5-1.8-2.8-2.4
		c-0.7-0.2-2.7-0.8-6.1-1.6l-6.5-1.6L267.9,530.9z"/>
</g>
<g>
	<path class="st3" d="M316.9,563.1l0.7-35.4l-12.6-0.2l0.1-7.2l33.9,0.6l-0.1,7.2l-12.6-0.2l-0.7,35.4L316.9,563.1z"/>
</g>
<g>
	<path class="st3" d="M353.3,561.7l-5.7-42.2l8.5-1.1l5.7,42.2L353.3,561.7z"/>
</g>
<g>
	<path class="st3" d="M379.9,557.4l-12.1-40.8l28-8.3l2,6.9L378,521l2.9,9.7l17.1-5.1l2,6.9l-17.1,5.1l5.2,17.4L379.9,557.4z"/>
</g>
<g>
	<path class="st3" d="M423.3,542.3L405,503.8l7.8-3.7l18.3,38.5L423.3,542.3z"/>
</g>
<g>
	<path class="st3" d="M447.4,530.2l-24.2-35.1l26-18l4.1,5.9l-18.9,13.1l5.4,7.8l17.6-12.2l4.1,5.9l-17.6,12.2l6.6,9.5l19.6-13.5
		l4.1,5.9L447.4,530.2z"/>
</g>
<g>
	<path class="st3" d="M457.2,470.4l10.6-11.6c2.4-2.6,4.4-4.4,6.1-5.4c2.2-1.3,4.6-2,7.2-2.1c2.6,0,5.2,0.5,7.8,1.7
		c2.6,1.2,5.4,3.1,8.4,5.8c2.6,2.4,4.5,4.7,5.8,7.1c1.6,2.9,2.4,5.7,2.5,8.4c0.1,2.1-0.5,4.3-1.6,6.8c-0.8,1.8-2.3,3.9-4.5,6.2
		l-11,11.9L457.2,470.4z M468.3,468.9l20.8,19.1l4.4-4.7c1.6-1.8,2.7-3.1,3.2-4.1c0.7-1.3,1-2.5,1-3.8c0-1.2-0.5-2.7-1.5-4.4
		c-1-1.7-2.7-3.7-5.2-5.9c-2.4-2.2-4.5-3.7-6.2-4.5c-1.7-0.8-3.3-1.1-4.7-1s-2.8,0.6-4.2,1.6c-1,0.7-2.7,2.4-5.1,4.9L468.3,468.9z"
		/>
</g>
<g>
	<path class="st3" d="M496.8,441.6l-9.8-6l-2.2,3.7l-2-1.3l5.9-9.6l2,1.2l-2.2,3.6l9.8,6L496.8,441.6z M501.3,434.2l-11.8-7.2
		l2.3-3.7l9.5,2.8l-6.8-7.1l2.3-3.7l11.8,7.2l-1.4,2.3l-9.4-5.8l7.9,8.3l-1.3,2.2l-11-3.2l9.4,5.8L501.3,434.2z"/>
</g>
</svg>
